<?xml version="1.0" encoding="UTF-8"?>
<svg width="18px" height="14px" viewBox="0 0 18 14" version="1.1" xmlns="http://www.w3.org/2000/svg" xmlns:xlink="http://www.w3.org/1999/xlink">
    <!-- Generator: sketchtool 54.1 (76490) - https://sketchapp.com -->
    <title>99B6E3AC-90A8-463D-A798-663FAE42AF33@SVG</title>
    <desc>Created with sketchtool.</desc>
    <g id="MOBILE" stroke="none" stroke-width="1" fill="none" fill-rule="evenodd">
        <g id="[01]-Home-" transform="translate(-19.000000, -37.000000)" fill="#FFFFFF" fill-rule="nonzero">
            <g id="Header" transform="translate(0.000000, 1.000000)">
                <g id="logo-HC" transform="translate(16.000000, 32.000000)">
                    <g id="ic_HCID-Smiley" transform="translate(3.000000, 4.500000)">
                        <path d="M9.00322918,9.41469125e-14 C13.9718645,9.41469125e-14 17.9999988,3.94752388 17.9999988,8.82278232 C18.0008586,10.4859465 17.5259512,12.112595 16.6344639,13.5 L12.2923986,13.5 C14.1679155,12.0443286 14.9292131,9.51827389 14.1831501,7.2263146 C13.437087,4.93435532 11.3506486,3.38948207 9.00129134,3.38948207 C6.6519341,3.38948207 4.56549565,4.93435532 3.81943261,7.2263146 C3.07336957,9.51827389 3.83466718,12.0443286 5.71018412,13.5 L1.3694107,13.5 C0.476135192,12.1132395 -0.000168821987,10.4864247 4.48863888e-08,8.82278232 C4.48863888e-08,3.94752388 4.02942632,9.41469125e-14 9.00322918,9.41469125e-14 Z M6,9.64285714 L12,9.64285714 C11.58058,10.79222 10.3684777,11.5714286 9,11.5714286 C7.63152225,11.5714286 6.41941998,10.79222 6,9.64285714 Z" id="Combined-Shape"></path>
                    </g>
                </g>
            </g>
        </g>
    </g>
</svg>